<?xml version="1.0" encoding="UTF-8" standalone="no"?><!DOCTYPE svg PUBLIC "-//W3C//DTD SVG 1.1//EN" "http://www.w3.org/Graphics/SVG/1.1/DTD/svg11.dtd"><svg width="100%" height="100%" viewBox="0 0 1935 678" version="1.1" xmlns="http://www.w3.org/2000/svg" xmlns:xlink="http://www.w3.org/1999/xlink" xml:space="preserve" xmlns:serif="http://www.serif.com/" style="fill-rule:evenodd;clip-rule:evenodd;stroke-linejoin:round;stroke-miterlimit:2;"><g><path d="M336.801,671.221c-183.415,0 -332.634,-149.145 -332.634,-332.469c0,-183.324 149.219,-332.473 332.634,-332.473c12.903,-0 23.363,10.455 23.363,23.355c0,12.896 -10.461,23.355 -23.363,23.355c-157.65,0 -285.904,128.19 -285.904,285.762c0,157.568 128.257,285.762 285.904,285.762c12.903,0 23.367,10.455 23.367,23.352c0,12.9 -10.464,23.355 -23.367,23.355" style="fill-rule:nonzero;"/><path d="M334.838,671.221c-12.903,0 -23.367,-10.455 -23.367,-23.355c0,-12.896 10.464,-23.352 23.367,-23.352c157.646,0 285.904,-128.194 285.904,-285.762c0,-157.572 -128.257,-285.765 -285.904,-285.762c-12.907,0 -23.367,-10.459 -23.367,-23.355c0,-12.9 10.461,-23.355 23.367,-23.355c183.412,-0 332.634,149.145 332.634,332.473c0,183.321 -149.219,332.469 -332.634,332.469" style="fill-rule:nonzero;"/><path d="M324.859,451.098c-61.981,0 -112.404,-50.398 -112.404,-112.348c0,-61.946 50.423,-112.348 112.404,-112.348c12.903,0 23.367,10.459 23.367,23.355c0,12.896 -10.464,23.355 -23.367,23.355c-36.211,0 -65.673,29.444 -65.673,65.637c0,36.193 29.462,65.641 65.673,65.641c12.903,0 23.367,10.455 23.367,23.352c0,12.9 -10.464,23.355 -23.367,23.355" style="fill-rule:nonzero;"/><path d="M324.859,451.098c-61.981,0 -112.404,-50.398 -112.404,-112.348c0,-61.946 50.423,-112.348 112.404,-112.348c12.903,0 23.367,10.459 23.367,23.355c0,12.896 -10.464,23.355 -23.367,23.355c-36.211,0 -65.673,29.444 -65.673,65.637c0,36.193 29.462,65.641 65.673,65.641c12.903,0 23.367,10.455 23.367,23.352c0,12.9 -10.464,23.355 -23.367,23.355" style="fill-rule:nonzero;"/><path d="M399.545,567.877c-12.903,0 -23.367,-10.455 -23.367,-23.355l0,-400.986c0,-12.9 10.461,-23.355 23.367,-23.355c12.903,0 23.363,10.455 23.363,23.355l0.004,400.986c0,12.9 -10.464,23.355 -23.367,23.355" style="fill-rule:nonzero;"/><path d="M324.859,558.986c-121.501,0 -220.343,-98.797 -220.343,-220.234c0,-121.437 98.843,-220.238 220.343,-220.238c12.903,0 23.363,10.459 23.363,23.355c0,12.896 -10.461,23.352 -23.363,23.355c-95.731,0 -173.613,77.843 -173.613,173.527c0,95.68 77.885,173.527 173.613,173.527c12.903,0 23.367,10.455 23.367,23.352c0,12.9 -10.464,23.355 -23.367,23.355" style="fill-rule:nonzero;"/></g><g><path d="M776.488,104.499c8.132,-0.14 17.229,4.361 17.057,11.553c-0.087,3.658 -0,198.847 -0,198.847l-32.917,0c0,0 -0.168,-196.365 0,-198.847c0.426,-6.308 7.405,-11.408 15.859,-11.553Z" style="fill-rule:nonzero;"/><path d="M941.25,180.696c11.25,11.253 16.667,25.424 16.667,43.345l0,90.858l-30.833,0l0,-86.691c0,-23.757 -14.583,-39.594 -36.667,-39.594c-22.083,0 -37.5,15.838 -37.5,39.594l0,86.691l-30.833,0c0,0 -0.116,-146.284 0,-147.958c0.253,-3.657 7.799,-7.492 15.479,-7.637c7.842,-0.149 15.155,4.547 15.355,7.637c0.081,1.258 0.34,38.54 0.34,38.54c10,-16.671 25.076,-41.458 46.326,-41.458c21.25,0 30.833,5.418 42.083,16.671l-0.417,0Z" style="fill-rule:nonzero;"/><path d="M1090.417,176.528c10.833,8.336 16.25,19.172 16.25,32.509l-28.75,0c-0.833,-13.337 -12.5,-22.089 -29.583,-22.089c-17.083,0 -27.083,7.919 -27.083,18.755c1.25,9.169 3.75,13.337 12.917,16.671c6.667,2.501 8.333,2.917 17.917,4.585c14.167,2.917 15.417,2.501 29.583,7.502c6.25,2.501 11.25,5.001 15,7.919c7.083,5.835 13.75,16.671 13.75,30.425c0,13.754 -5.833,24.173 -16.667,32.509c-11.25,8.336 -26.25,12.503 -43.75,12.503c-17.5,0 -32.5,-4.168 -43.75,-12.92c-11.25,-8.752 -17.083,-20.006 -17.5,-33.343l30,0c0,14.171 13.75,23.34 32.083,23.34c18.333,0 29.583,-8.336 29.583,-20.422c0,-12.087 -2.5,-12.503 -10,-15.421c-7.083,-2.917 -10.417,-3.334 -21.667,-5.418c-11.667,-1.667 -17.917,-2.917 -29.583,-7.085c-5.833,-2.084 -10.833,-5.001 -14.583,-7.919c-7.083,-5.835 -13.333,-16.671 -13.333,-29.592c0,-26.674 23.333,-44.596 57.917,-44.596c34.583,0 30.833,4.168 41.667,12.503l-0.417,-0.417Z" style="fill-rule:nonzero;"/><path d="M1219.583,166.942l0,25.84l-33.333,0l0,122.117l-30.833,0l0,-122.117l-27.5,0l0,-25.84l27.5,0l0,-25.694l30.833,-12.65l0,38.344l33.333,0Z" style="fill-rule:nonzero;"/><path d="M1677.083,169.86l0,25.84l-33.333,0l0,122.117l-30.833,0l0,-122.117l-27.5,0l0,-25.84l27.5,0l0,-25.694l30.833,-12.65l0,38.344l33.333,0Z" style="fill-rule:nonzero;"/><path d="M1934.167,419.929l0,25.84l-33.333,0l0,122.117l-30.833,0l0,-122.117l-27.5,0l0,-25.84l27.5,0l0,-25.694l30.833,-12.65l0,38.344l33.333,0Z" style="fill-rule:nonzero;"/><path d="M1357.917,166.942l30.833,0l0,147.958l-30.833,0l0,-21.256c-13.75,15.838 -32.083,24.173 -53.75,24.173c-21.667,0 -38.333,-7.085 -51.667,-21.673c-13.75,-14.587 -20.833,-32.926 -20.833,-55.015c0,-22.089 7.083,-40.428 20.833,-55.015c13.333,-14.587 30.833,-21.673 51.667,-21.673c20.833,0 40,23.53 53.75,39.785l0,-37.284Zm-13.333,109.614c8.75,-9.169 13.333,-21.256 13.333,-35.843c0,-14.587 -4.583,-26.674 -13.333,-35.843c-9.167,-9.169 -20.417,-14.171 -34.167,-14.171c-13.75,0 -25,5.001 -33.75,14.171c-9.167,9.169 -13.333,21.256 -13.333,35.843c0,14.587 4.583,26.674 13.333,35.843c8.75,9.169 20,14.171 33.75,14.171c13.75,0 25.417,-5.001 34.167,-14.171Z" style="fill-rule:nonzero;"/><path d="M1545.833,180.696c11.25,11.253 16.667,25.424 16.667,43.345l0,90.858l-30.833,0l0,-86.691c0,-23.757 -14.583,-39.594 -36.667,-39.594c-22.083,0 -37.5,15.838 -37.5,39.594l0,86.691l-30.833,0c0,0 -0.116,-146.284 0,-147.958c0.253,-3.657 7.799,-7.492 15.479,-7.637c7.842,-0.149 15.155,4.547 15.355,7.637c0.081,1.258 0.34,38.54 0.34,38.54c10,-16.671 25.076,-41.458 46.326,-41.458c21.25,0 30.833,5.418 42.083,16.671l-0.417,0Z" style="fill-rule:nonzero;"/><path d="M1280.051,433.683c11.25,11.253 16.667,25.424 16.667,43.345l0,90.858l-30.833,0l0,-86.691c0,-23.757 -14.583,-39.594 -36.667,-39.594c-22.083,0 -37.5,15.838 -37.5,39.594l0,86.691l-30.833,0c0,0 -0.116,-146.284 0,-147.958c0.253,-3.657 7.799,-7.492 15.479,-7.637c7.842,-0.149 15.155,4.547 15.355,7.637c0.081,1.258 0.34,38.54 0.34,38.54c10,-16.671 25.076,-41.458 46.326,-41.458c21.25,0 30.833,5.418 42.083,16.671l-0.417,0Z" style="fill-rule:nonzero;"/><path d="M1452.083,433.683c11.25,11.253 16.667,25.424 16.667,43.345l0,90.858l-30.833,0l0,-86.691c0,-23.757 -14.583,-39.594 -36.667,-39.594c-22.083,0 -37.5,15.838 -37.5,39.594l0,86.691l-30.833,0c0,0 -0.116,-146.284 0,-147.958c0.253,-3.657 7.799,-7.492 15.479,-7.637c7.842,-0.149 15.155,4.547 15.355,7.637c0.081,1.258 0.34,38.54 0.34,38.54c10,-16.671 25.076,-41.458 46.326,-41.458c21.25,0 30.833,5.418 42.083,16.671l-0.417,0Z" style="fill-rule:nonzero;"/><path d="M951.667,483.696c-3.75,25.84 -15.833,47.096 -35,62.934c-19.583,15.838 -42.917,24.173 -70.833,24.173c-27.917,0 -57.083,-10.42 -77.5,-30.425c-20.417,-20.006 -30.833,-45.846 -30.833,-76.688c0,-30.842 10.417,-56.266 30.833,-76.271c20,-20.006 45.833,-30.008 77.5,-30.008c31.667,0 51.25,7.919 70.833,23.757c19.583,15.838 31.25,37.094 35,62.517l-33.75,0c-7.5,-33.759 -35.417,-56.266 -72.5,-56.266c-37.083,0 -39.583,7.085 -53.75,21.256c-14.167,14.587 -21.25,32.926 -21.25,55.015c0,22.089 7.083,40.428 21.25,55.015c14.167,14.587 32.083,22.089 53.75,22.089c21.667,0 34.167,-5.418 47.083,-15.838c12.917,-10.42 21.25,-24.173 25.417,-40.845l33.75,0l0,-0.417Z" style="fill-rule:nonzero;"/><path d="M1052.5,417.428c22.917,0 41.667,7.085 56.667,21.673c14.583,14.587 22.083,32.926 22.083,55.015c0,22.089 -7.5,40.428 -22.083,55.015c-14.583,14.587 -33.75,21.673 -56.667,21.673c-22.917,0 -41.667,-7.085 -56.667,-21.673c-15,-14.587 -22.5,-32.926 -22.5,-55.015c0,-22.089 7.5,-40.428 22.5,-55.015c14.583,-14.587 33.75,-21.673 56.667,-21.673Zm-34.167,40.845c-9.167,9.169 -13.333,21.256 -13.333,35.843c0,14.587 4.583,26.674 13.333,35.843c8.75,9.169 20,14.171 33.75,14.171c13.75,0 25.417,-5.001 34.167,-14.171c8.75,-9.169 13.333,-21.256 13.333,-35.843c0,-14.587 -4.583,-26.674 -13.333,-35.843c-9.167,-9.169 -20.417,-14.171 -34.167,-14.171c-13.75,0 -25,5.001 -33.75,14.171Z" style="fill-rule:nonzero;"/><path d="M1653.333,503.702l-127.083,0c3.75,25.007 23.75,41.678 49.167,41.678c25.417,0 39.167,-12.92 45,-30.842l31.25,0c-4.167,16.671 -13.333,29.592 -27.5,40.428c-14.167,10.42 -30.417,15.838 -48.75,15.838c-18.333,0 -41.667,-7.085 -56.667,-21.673c-15,-14.587 -22.5,-32.926 -22.5,-55.015c0,-22.089 7.5,-40.428 22.5,-55.015c14.583,-14.587 33.75,-21.673 56.667,-21.673c22.917,0 41.667,7.085 56.667,21.673c14.583,14.587 22.083,32.926 22.083,55.432c0,3.334 0,6.252 -0.833,9.169Zm-77.917,-61.267c-12.083,0 -22.083,3.334 -30.833,10.42c-8.75,7.085 -14.583,15.838 -17.083,27.091l97.083,0c-2.5,-11.253 -8.333,-20.006 -17.5,-27.091c-9.167,-7.085 -19.583,-10.42 -31.667,-10.42Z" style="fill-rule:nonzero;"/><path d="M1830,506.619c-2.083,18.755 -10.417,34.176 -25,45.846c-14.583,12.087 -32.083,17.922 -52.083,17.922c-20,0 -41.667,-7.085 -56.667,-21.673c-15,-14.587 -22.5,-32.926 -22.5,-55.015c0,-22.089 7.5,-40.428 22.5,-55.015c14.583,-14.587 33.75,-21.673 56.667,-21.673c22.917,0 37.5,5.835 52.083,17.922c14.583,12.503 22.917,27.508 25,45.846l-31.25,0c-4.583,-21.673 -23.333,-37.51 -45.833,-37.51c-22.5,0 -25.417,5.001 -34.167,14.171c-9.167,9.169 -13.333,21.256 -13.333,35.843c0,14.587 4.583,26.674 13.333,35.843c8.75,9.169 20,14.171 34.167,14.171c22.917,0 41.667,-15.421 45.833,-37.51l30.833,0l0.417,0.834Z" style="fill-rule:nonzero;"/></g></svg>